<?xml version="1.0" encoding="UTF-8"?>
<svg width="126px" height="142px" viewBox="0 0 126 142" version="1.1" xmlns="http://www.w3.org/2000/svg" xmlns:xlink="http://www.w3.org/1999/xlink">
    <!-- Generator: Sketch 61.2 (89653) - https://sketch.com -->
    <title>accepted</title>
    <desc>Created with Sketch.</desc>
    <g id="User-Flows-Final-(EN)" stroke="none" stroke-width="1" fill="none" fill-rule="evenodd">
        <g id="TC30" transform="translate(-135.000000, -216.000000)" fill="#EE6623" fill-rule="nonzero">
            <g id="accepted" transform="translate(135.000000, 216.000000)">
                <path d="M20.7142857,130 L9.28571429,130 C8.02334914,130 7,131.119288 7,132.5 C7,133.880712 8.02334914,135 9.28571429,135 L20.7142857,135 C21.9766509,135 23,133.880712 23,132.5 C23,131.119288 21.9766509,130 20.7142857,130 Z" id="Path"></path>
                <path d="M29.6666667,130 L27.3333333,130 C26.0446689,130 25,131.119288 25,132.5 C25,133.880712 26.0446689,135 27.3333333,135 L29.6666667,135 C30.9553311,135 32,133.880712 32,132.5 C32,131.119288 30.9553311,130 29.6666667,130 Z" id="Path"></path>
                <path d="M14.2941176,42 L87.7058824,42 C88.9728885,42 90,40.9553311 90,39.6666667 L90,30.3333333 C90,29.0446689 88.9728885,28 87.7058824,28 L14.2941176,28 C13.0271115,28 12,29.0446689 12,30.3333333 L12,39.6666667 C12,40.9553311 13.0271115,42 14.2941176,42 Z M16.5882353,32.6666667 L85.4117647,32.6666667 L85.4117647,37.3333333 L16.5882353,37.3333333 L16.5882353,32.6666667 Z" id="Shape"></path>
                <path d="M14.2941176,60 L87.7058824,60 C88.9728885,60 90,58.9553311 90,57.6666667 L90,48.3333333 C90,47.0446689 88.9728885,46 87.7058824,46 L14.2941176,46 C13.0271115,46 12,47.0446689 12,48.3333333 L12,57.6666667 C12,58.9553311 13.0271115,60 14.2941176,60 Z M16.5882353,50.6666667 L85.4117647,50.6666667 L85.4117647,55.3333333 L16.5882353,55.3333333 L16.5882353,50.6666667 Z" id="Shape"></path>
                <path d="M14.2941176,78 L87.7058824,78 C88.9728885,78 90,76.9553311 90,75.6666667 L90,66.3333333 C90,65.0446689 88.9728885,64 87.7058824,64 L14.2941176,64 C13.0271115,64 12,65.0446689 12,66.3333333 L12,75.6666667 C12,76.9553311 13.0271115,78 14.2941176,78 Z M16.5882353,68.6666667 L85.4117647,68.6666667 L85.4117647,73.3333333 L16.5882353,73.3333333 L16.5882353,68.6666667 Z" id="Shape"></path>
                <path d="M57.7142857,82 L14.2857143,82 C13.0233491,82 12,83.1192881 12,84.5 C12,85.8807119 13.0233491,87 14.2857143,87 L57.7142857,87 C58.9766509,87 60,85.8807119 60,84.5 C60,83.1192881 58.9766509,82 57.7142857,82 Z" id="Path"></path>
                <path d="M43.7333333,89 L14.2666667,89 C13.0148212,89 12,90.1192881 12,91.5 C12,92.8807119 13.0148212,94 14.2666667,94 L43.7333333,94 C44.9851788,94 46,92.8807119 46,91.5 C46,90.1192881 44.9851788,89 43.7333333,89 Z" id="Path"></path>
                <path d="M18.75,101 C19.9926407,101 21,99.8807119 21,98.5 C21,97.1192881 19.9926407,96 18.75,96 L14.25,96 C13.0073593,96 12,97.1192881 12,98.5 C12,99.8807119 13.0073593,101 14.25,101 L18.75,101 Z" id="Path"></path>
                <path d="M27.6666667,101 C28.9553311,101 30,99.8807119 30,98.5 C30,97.1192881 28.9553311,96 27.6666667,96 L25.3333333,96 C24.0446689,96 23,97.1192881 23,98.5 C23,99.8807119 24.0446689,101 25.3333333,101 L27.6666667,101 Z" id="Path"></path>
                <path d="M126,107.645161 C125.982336,93.3611627 115.036514,81.465106 100.8,80.2574839 L100.8,20.6129032 C100.800022,20.0054634 100.558674,19.4228947 100.12905,18.9933589 L81.8017773,0.670778226 C81.3721314,0.241264501 80.7894135,0 80.1818182,0 L2.29090909,0 C1.02567494,0 0,1.02541235 0,2.29032258 L0,139.709677 C0,140.974588 1.02567494,142 2.29090909,142 L98.5090909,142 C99.7743251,142 100.8,140.974588 100.8,139.709677 L100.8,135.032839 C115.036514,133.825217 125.982336,121.92916 126,107.645161 Z M82.4727273,7.81944758 L92.97855,18.3225806 L82.4727273,18.3225806 L82.4727273,7.81944758 Z M4.58181818,137.419355 L4.58181818,4.58064516 L77.8909091,4.58064516 L77.8909091,20.6129032 C77.8909091,21.8778135 78.916584,22.9032258 80.1818182,22.9032258 L96.2181818,22.9032258 L96.2181818,80.2574839 C81.9762921,81.4518784 71.0253138,93.3569088 71.0253138,107.645161 C71.0253138,121.933414 81.9762921,133.838444 96.2181818,135.032839 L96.2181818,137.419355 L4.58181818,137.419355 Z M98.5090909,130.548387 C85.8567494,130.548387 75.6,120.294264 75.6,107.645161 C75.6,94.996059 85.8567494,84.7419355 98.5090909,84.7419355 C111.161432,84.7419355 121.418182,94.996059 121.418182,107.645161 C121.403821,120.288312 111.155479,130.53403 98.5090909,130.548387 L98.5090909,130.548387 Z" id="Shape"></path>
                <path d="M116.330071,98.6834434 C115.90142,98.2458432 115.320031,98 114.713812,98 C114.107592,98 113.526204,98.2458432 113.097553,98.6834434 L98.3597981,113.72812 L88.461677,107.665684 C87.7614481,107.236797 86.8902692,107.221836 86.1763051,107.626438 C85.462341,108.031039 85.0140598,108.793734 85.0003247,109.627222 C84.9865895,110.460711 85.4094872,111.238366 86.1097161,111.667253 L97.5380974,118.667083 C98.4372719,119.218195 99.5884817,119.073897 100.330337,118.317092 L116.330071,101.984155 C116.759006,101.546542 117,100.952858 117,100.333799 C117,99.7147405 116.759006,99.1210567 116.330071,98.6834434 L116.330071,98.6834434 Z" id="Path"></path>
            </g>
        </g>
    </g>
</svg>