<?xml version="1.0" encoding="UTF-8"?>
<svg width="18px" height="18px" viewBox="0 0 18 18" version="1.1" xmlns="http://www.w3.org/2000/svg" xmlns:xlink="http://www.w3.org/1999/xlink">
    <!-- Generator: Sketch 61.2 (89653) - https://sketch.com -->
    <title>close copy</title>
    <desc>Created with Sketch.</desc>
    <g id="User-Flows-Final-(EN)" stroke="none" stroke-width="1" fill="none" fill-rule="evenodd">
        <g id="TC22" transform="translate(-337.000000, -64.000000)" fill="#FFFFFF" fill-rule="nonzero" stroke="#FFFFFF">
            <g id="close-copy" transform="translate(346.000000, 73.000000) rotate(-45.000000) translate(-346.000000, -73.000000) translate(340.000000, 67.000000)">
                <path d="M7.057,5.99625 L11.773,1.28025 C12.066,0.9875 12.066,0.5125 11.773,0.21975 C11.48,-0.07325 11.0055,-0.07325 10.7125,0.21975 L5.9965,4.93575 L1.28025,0.21975 C0.98725,-0.07325 0.51275,-0.07325 0.21975,0.21975 C-0.07325,0.5125 -0.07325,0.9875 0.21975,1.28025 L4.936,5.99625 L0.21975,10.71225 C-0.07325,11.005 -0.07325,11.48 0.21975,11.77275 C0.36625,11.919 0.55825,11.99225 0.75,11.99225 C0.94175,11.99225 1.13375,11.919 1.28025,11.7725 L5.9965,7.0565 L10.7125,11.7725 C10.859,11.919 11.051,11.99225 11.24275,11.99225 C11.4345,11.99225 11.6265,11.919 11.773,11.7725 C12.066,11.47975 12.066,11.00475 11.773,10.712 L7.057,5.99625 Z" id="Path"></path>
            </g>
        </g>
    </g>
</svg>