<?xml version="1.0" encoding="UTF-8"?>
<svg width="14px" height="14px" viewBox="0 0 14 14" version="1.1" xmlns="http://www.w3.org/2000/svg" xmlns:xlink="http://www.w3.org/1999/xlink">
    <!-- Generator: Sketch 61.2 (89653) - https://sketch.com -->
    <title>svg_2</title>
    <desc>Created with Sketch.</desc>
    <g id="User-Flows-Final-(EN)" stroke="none" stroke-width="1" fill="none" fill-rule="evenodd">
        <g id="TC26" transform="translate(-336.000000, -158.000000)" fill="#BF0000" fill-rule="nonzero">
            <g id="Group-7" transform="translate(24.000000, 158.000000)">
                <g id="iconfinder-icon-(2)" transform="translate(312.000000, 0.000000)">
                    <g id="Layer-1" transform="translate(0.932990, 0.932990)">
                        <path d="M6.44329897,0 C2.89948454,0 0,2.89948454 0,6.44329897 C0,9.9871134 2.89948454,12.8865979 6.44329897,12.8865979 C9.9871134,12.8865979 12.8865979,9.9871134 12.8865979,6.44329897 C12.8865979,2.89948454 9.9871134,0 6.44329897,0 Z M9.60051546,8.69845361 L8.69845361,9.60051546 L6.44329897,7.34536082 L4.18814433,9.60051546 L3.28608247,8.69845361 L5.54123711,6.44329897 L3.28608247,4.18814433 L4.18814433,3.28608247 L6.44329897,5.54123711 L8.69845361,3.28608247 L9.60051546,4.18814433 L7.34536082,6.44329897 L9.60051546,8.69845361 L9.60051546,8.69845361 Z" id="svg_2"></path>
                    </g>
                </g>
            </g>
        </g>
    </g>
</svg>