<?xml version="1.0" encoding="UTF-8"?>
<svg width="12px" height="12px" viewBox="0 0 12 12" version="1.1" xmlns="http://www.w3.org/2000/svg" xmlns:xlink="http://www.w3.org/1999/xlink">
    <!-- Generator: Sketch 61.2 (89653) - https://sketch.com -->
    <title>close</title>
    <desc>Created with Sketch.</desc>
    <g id="User-Flows-Final-(EN)" stroke="none" stroke-width="1" fill="none" fill-rule="evenodd">
        <g id="TC22" transform="translate(-339.000000, -199.000000)" fill="#E02020" fill-rule="nonzero" stroke="#FF0000">
            <g id="close" transform="translate(340.000000, 200.000000)">
                <path d="M5.88083333,4.996875 L9.81083333,1.066875 C10.055,0.822916667 10.055,0.427083333 9.81083333,0.183125 C9.56666667,-0.0610416667 9.17125,-0.0610416667 8.92708333,0.183125 L4.99708333,4.113125 L1.066875,0.183125 C0.822708333,-0.0610416667 0.427291667,-0.0610416667 0.183125,0.183125 C-0.0610416667,0.427083333 -0.0610416667,0.822916667 0.183125,1.066875 L4.11333333,4.996875 L0.183125,8.926875 C-0.0610416667,9.17083333 -0.0610416667,9.56666667 0.183125,9.810625 C0.305208333,9.9325 0.465208333,9.99354167 0.625,9.99354167 C0.784791667,9.99354167 0.944791667,9.9325 1.066875,9.81041667 L4.99708333,5.88041667 L8.92708333,9.81041667 C9.04916667,9.9325 9.20916667,9.99354167 9.36895833,9.99354167 C9.52875,9.99354167 9.68875,9.9325 9.81083333,9.81041667 C10.055,9.56645833 10.055,9.170625 9.81083333,8.92666667 L5.88083333,4.996875 Z" id="Path"></path>
            </g>
        </g>
    </g>
</svg>