<?xml version="1.0" encoding="UTF-8"?>
<svg width="32px" height="29px" viewBox="0 0 32 29" version="1.1" xmlns="http://www.w3.org/2000/svg" xmlns:xlink="http://www.w3.org/1999/xlink">
    <!-- Generator: Sketch 61.2 (89653) - https://sketch.com -->
    <title>shopping-cart</title>
    <desc>Created with Sketch.</desc>
    <g id="Symbols" stroke="none" stroke-width="1" fill="none" fill-rule="evenodd">
        <g id="Bottom-Menu" transform="translate(-317.000000, -26.000000)" fill="#6F8098" fill-rule="nonzero">
            <g id="shopping-cart" transform="translate(318.000000, 27.000000)">
                <path d="M12.5791992,22.4899219 C11.124375,22.4899219 9.94078125,23.6735156 9.94078125,25.1283398 C9.94078125,26.5831641 11.124375,27.7667578 12.5791992,27.7667578 C14.0340234,27.7667578 15.2176172,26.5831641 15.2176172,25.1283398 C15.2175586,23.6735156 14.0339648,22.4899219 12.5791992,22.4899219 Z M12.5791992,26.2934766 C11.9366602,26.2934766 11.4139453,25.7707031 11.4139453,25.1282227 C11.4139453,24.4856836 11.9367188,23.9629687 12.5791992,23.9629687 C13.2216797,23.9629687 13.7444531,24.4857422 13.7444531,25.1282227 C13.7444531,25.7708203 13.2216797,26.2934766 12.5791992,26.2934766 Z" id="Shape"></path>
                <path d="M21.8337891,22.4899219 C20.3789648,22.4899219 19.1953711,23.6735156 19.1953711,25.1283398 C19.1953711,26.5831641 20.3789648,27.7667578 21.8337891,27.7667578 C23.2886133,27.7667578 24.472207,26.5831641 24.472207,25.1283398 C24.4721484,23.6735156 23.2885547,22.4899219 21.8337891,22.4899219 Z M21.8337891,26.2934766 C21.19125,26.2934766 20.6685352,25.7707031 20.6685352,25.1282227 C20.6685352,24.4856836 21.1913086,23.9629687 21.8337891,23.9629687 C22.4763281,23.9629687 22.999043,24.4857422 22.999043,25.1282227 C22.999043,25.7708203 22.4762695,26.2934766 21.8337891,26.2934766 Z" id="Shape"></path>
                <path d="M22.4833594,8.59892578 L11.9277539,8.59892578 C11.5209375,8.59892578 11.1911719,8.92869141 11.1911719,9.33550781 C11.1911719,9.74232422 11.5209961,10.0720898 11.9277539,10.0720898 L22.4833594,10.0720898 C22.8901758,10.0720898 23.2199414,9.74232422 23.2199414,9.33550781 C23.2199414,8.92863281 22.8901758,8.59892578 22.4833594,8.59892578 Z" id="Path"></path>
                <path d="M21.9088477,12.4239258 L12.5023242,12.4239258 C12.0955078,12.4239258 11.7657422,12.7536914 11.7657422,13.1605078 C11.7657422,13.5673242 12.0955078,13.8970898 12.5023242,13.8970898 L21.9087891,13.8970898 C22.3156055,13.8970898 22.6453711,13.5673242 22.6453711,13.1605078 C22.6453711,12.75375 22.3156055,12.4239258 21.9088477,12.4239258 Z" id="Path"></path>
                <path d="M29.668418,5.31703125 C29.3875195,4.97226563 28.9712695,4.77457031 28.5264844,4.77457031 L5.58269531,4.77457031 L5.11933594,2.52521484 C5.02259766,2.05599609 4.70255859,1.66201172 4.26304688,1.47117188 L1.03001953,0.0678515625 C0.656777344,-0.0942773437 0.223007813,0.0769921875 0.0611132813,0.450117188 C-0.100957031,0.823359375 0.0703125,1.2571875 0.443378906,1.41908203 L3.67646484,2.82246094 L7.24048828,20.1229102 C7.38087891,20.8042383 7.98767578,21.2987695 8.68335938,21.2987695 L26.3298047,21.2987695 C26.7366211,21.2987695 27.0663867,20.9690039 27.0663867,20.5621875 C27.0663867,20.1553711 26.7366211,19.8256055 26.3298047,19.8256055 L8.68341797,19.8256055 L8.24988281,17.7211523 L26.4662109,17.7211523 C27.1618359,17.7211523 27.7686914,17.2266211 27.9090234,16.545293 L29.9693555,6.54480469 C30.0590625,6.10933594 29.949375,5.66173828 29.668418,5.31703125 Z M26.4662109,16.2481055 L7.94642578,16.2481055 L5.88621094,6.24767578 L28.5264258,6.24767578 L26.4662109,16.2481055 Z" id="Shape" stroke="#6F8098"></path>
            </g>
        </g>
    </g>
</svg>