<?xml version="1.0" encoding="UTF-8"?>
<svg width="13px" height="13px" viewBox="0 0 13 13" version="1.1" xmlns="http://www.w3.org/2000/svg" xmlns:xlink="http://www.w3.org/1999/xlink">
    <!-- Generator: Sketch 61.2 (89653) - https://sketch.com -->
    <title>close</title>
    <desc>Created with Sketch.</desc>
    <g id="User-Flows-Final-(EN)" stroke="none" stroke-width="1" fill="none" fill-rule="evenodd">
        <g id="TC27" transform="translate(-339.000000, -64.000000)" fill="#FFFFFF" fill-rule="nonzero">
            <g id="close" transform="translate(339.000000, 64.000000)">
                <path d="M7.64508333,6.49620833 L12.7540833,1.38720833 C13.0715,1.0700625 13.0715,0.555479167 12.7540833,0.238333333 C12.4366667,-0.0790833333 11.922625,-0.0790833333 11.6052083,0.238333333 L6.49620833,5.34733333 L1.3869375,0.238333333 C1.06952083,-0.0790833333 0.555479167,-0.0790833333 0.2380625,0.238333333 C-0.0793541667,0.555479167 -0.0793541667,1.0700625 0.2380625,1.38720833 L5.34733333,6.49620833 L0.2380625,11.6052083 C-0.0793541667,11.9223542 -0.0793541667,12.4369375 0.2380625,12.7540833 C0.396770833,12.9125208 0.604770833,12.991875 0.8125,12.991875 C1.02022917,12.991875 1.22822917,12.9125208 1.3869375,12.7538125 L6.49620833,7.6448125 L11.6052083,12.7538125 C11.7639167,12.9125208 11.9719167,12.991875 12.1796458,12.991875 C12.387375,12.991875 12.595375,12.9125208 12.7540833,12.7538125 C13.0715,12.4366667 13.0715,11.9220833 12.7540833,11.6049375 L7.64508333,6.49620833 Z" id="Path"></path>
            </g>
        </g>
    </g>
</svg>