<?xml version="1.0" encoding="UTF-8"?>
<svg width="14px" height="9px" viewBox="0 0 14 9" version="1.1" xmlns="http://www.w3.org/2000/svg" xmlns:xlink="http://www.w3.org/1999/xlink">
    <!-- Generator: Sketch 61.2 (89653) - https://sketch.com -->
    <title>Path</title>
    <desc>Created with Sketch.</desc>
    <g id="User-Flows-Final-(EN)" stroke="none" stroke-width="1" fill="none" fill-rule="evenodd">
        <g id="TC25" transform="translate(-324.000000, -493.000000)" fill="#EE6623" fill-rule="nonzero">
            <g id="Group-2" transform="translate(25.000000, 445.000000)">
                <path d="M304.688294,52.8136902 L309.782563,47.7176533 C309.922834,47.5776717 310,47.3905129 310,47.1909506 C310,46.9912775 309.922834,46.8042294 309.782563,46.6640264 L309.336175,46.2177245 C309.196125,46.0772999 309.008913,46 308.809411,46 C308.609909,46 308.422918,46.0772999 308.282757,46.2177245 L302.217218,52.2849941 C302.076504,52.4256401 301.999449,52.6135742 302,52.8133579 C301.999449,53.0140277 302.076394,53.2017403 302.217218,53.342497 L308.277111,59.4038972 C308.417272,59.5443217 308.604263,59.6216216 308.803875,59.6216216 C309.003377,59.6216216 309.190368,59.5443217 309.33064,59.4038972 L309.776917,58.9575953 C310.067312,58.6671114 310.067312,58.1942307 309.776917,57.9038576 L304.688294,52.8136902 Z" id="Path" transform="translate(306.000000, 52.810811) rotate(-90.000000) translate(-306.000000, -52.810811) "></path>
            </g>
        </g>
    </g>
</svg>