<?xml version="1.0" encoding="UTF-8"?>
<svg width="18px" height="18px" viewBox="0 0 18 18" version="1.1" xmlns="http://www.w3.org/2000/svg" xmlns:xlink="http://www.w3.org/1999/xlink">
    <!-- Generator: Sketch 61.2 (89653) - https://sketch.com -->
    <title>Shape</title>
    <desc>Created with Sketch.</desc>
    <g id="User-Flows-Final-(EN)" stroke="none" stroke-width="1" fill="none" fill-rule="evenodd">
        <g id="TC24" transform="translate(-314.000000, -590.000000)" fill="#EE6623" fill-rule="nonzero">
            <g id="Group" transform="translate(25.000000, 576.000000)">
                <g id="_ionicons_svg_md-search" transform="translate(289.000000, 14.000000)">
                    <path d="M12.8207344,10.9910464 L12.000375,10.9910464 L11.6923594,10.7412375 C12.6669375,9.59228036 13.2824531,8.14324286 13.2824531,6.49471339 C13.2824063,2.89752857 10.307625,0 6.61570313,0 C2.9743125,0 0,2.89752857 0,6.49471339 C0,10.0918982 2.9743125,12.9893812 6.66679688,12.9893812 C8.3079375,12.9893812 9.846375,12.3898125 11.02575,11.4408027 L11.3332969,11.6906571 L11.3332969,12.4898545 L16.4615625,17.4857143 L18,15.9869518 L12.8207344,10.9910464 Z M6.66679688,10.9910464 C4.10264063,10.9910464 2.05134375,8.99262054 2.05134375,6.49471339 C2.05134375,3.99671518 4.10264063,1.99842589 6.66679688,1.99842589 C9.23085938,1.99842589 11.2822031,3.99671518 11.2822031,6.49471339 C11.2822031,8.99262054 9.23085938,10.9910464 6.66679688,10.9910464 Z" id="Shape"></path>
                </g>
            </g>
        </g>
    </g>
</svg>