<?xml version="1.0" encoding="UTF-8"?>
<svg width="25px" height="25px" viewBox="0 0 25 25" version="1.1" xmlns="http://www.w3.org/2000/svg" xmlns:xlink="http://www.w3.org/1999/xlink">
    <!-- Generator: Sketch 61.2 (89653) - https://sketch.com -->
    <title>Shape</title>
    <desc>Created with Sketch.</desc>
    <g id="Symbols" stroke="none" stroke-width="1" fill="none" fill-rule="evenodd">
        <g id="Bottom-Menu" transform="translate(-234.000000, -24.000000)" fill="#6F8098" fill-rule="nonzero">
            <g id="Store-Locator" transform="translate(208.000000, 24.000000)">
                <g id="address" transform="translate(26.000000, 0.000000)">
                    <path d="M9.98535156,22.3928452 L9.98535156,24.9248505 L9.37309268,24.430275 C9.27848818,24.3537903 7.02762603,22.5263596 4.74510195,19.9058533 C1.59645078,16.2908554 0,13.0458832 0,10.2613449 L0,9.98535156 C0,4.47940825 4.47940825,0 9.98535156,0 C15.4912949,0 19.9707031,4.47940825 19.9707031,9.98535156 L19.9707031,10.2613449 C19.9707031,10.4951858 19.9583054,10.7326508 19.9357986,10.9729767 L17.9830551,9.19151309 C17.5830841,5.13114932 14.1490937,1.94835664 9.98535156,1.94835664 C5.55381777,1.94835664 1.94835664,5.55381777 1.94835664,9.98535156 L1.94835664,10.2613449 C1.94835664,14.966774 8.01105498,20.6630707 9.98535156,22.3928452 Z M15.9765244,20.9934234 L18.8989639,20.9934234 L18.8989639,18.0709839 L15.9765244,18.0709839 L15.9765244,20.9934234 Z M9.98535156,5.84506987 C12.2682571,5.84506987 14.1256333,7.702446 14.1256333,9.98535156 C14.1256333,12.2682571 12.2682571,14.1256333 9.98535156,14.1256333 C7.702446,14.1256333 5.84506987,12.2682571 5.84506987,9.98535156 C5.84506987,7.702446 7.702446,5.84506987 9.98535156,5.84506987 Z M9.98535156,7.79342651 C8.77666475,7.79342651 7.79342651,8.77666475 7.79342651,9.98535156 C7.79342651,11.1938477 8.77666475,12.1772766 9.98535156,12.1772766 C11.1938477,12.1772766 12.1772766,11.1938477 12.1772766,9.98535156 C12.1772766,8.77666475 11.1938477,7.79342651 9.98535156,7.79342651 Z M23.6869812,19.6695328 L23.1391907,19.1698074 L23.1391907,22.2976685 C23.1391907,23.7541199 21.954155,24.9389648 20.4977036,24.9389648 L14.3291474,24.9389648 C12.8726959,24.9389648 11.6876602,23.7541199 11.6876602,22.2976685 L11.6876602,19.1698074 L11.1398697,19.6695328 L9.82685088,18.2302475 L17.4133301,11.3090515 L25,18.2302475 L23.6869812,19.6695328 Z M21.190834,17.3923492 L17.4133301,13.9463425 L13.6360168,17.3923492 L13.6360168,22.2974777 C13.6360168,22.6797104 13.9469146,22.9906082 14.3291474,22.9906082 L20.4977036,22.9906082 C20.8799362,22.9906082 21.190834,22.6797104 21.190834,22.2974777 L21.190834,17.3923492 Z" id="Shape"></path>
                </g>
            </g>
        </g>
    </g>
</svg>