<?xml version="1.0" encoding="UTF-8"?>
<svg width="456px" height="210px" viewBox="0 0 456 210" version="1.1" xmlns="http://www.w3.org/2000/svg" xmlns:xlink="http://www.w3.org/1999/xlink">
    <!-- Generator: Sketch 61.2 (89653) - https://sketch.com -->
    <title>Group 8</title>
    <desc>Created with Sketch.</desc>
    <g id="User-Flows-Final-(EN)" stroke="none" stroke-width="1" fill="none" fill-rule="evenodd">
        <g id="Group-8" fill="#6D7278">
            <g id="Group-3">
                <path d="M394.866389,0.557304101 L62.7363181,0.557304101 C30.4883486,0.557304101 3.00422439,24.6853217 0.25033028,55.6241496 C-1.28454151,72.7305523 4.27545323,89.3086423 15.9253389,101.980341 C27.4159947,114.545336 43.7801295,121.725705 60.7785735,121.725705 L249.771409,121.725705 L249.771409,151.712008 C249.771409,165.651137 238.437373,176.948702 224.459076,176.948702 L206.40084,176.948702 C199.03972,176.948702 193.004646,183.020395 193.004646,190.359518 L193.004646,197.222379 C193.004646,202.502904 196.126596,207.255116 200.840845,209.365764 C201.159305,209.576569 201.529971,209.683273 201.900637,209.842027 L202.32351,210.000781 L233.459481,209.946128 C237.646444,209.313714 241.721163,208.205038 245.534849,206.726803 C267.881852,198.174903 283.55425,176.370941 283.55425,151.712008 L283.447227,90.9976816 L283.186194,88.0412121 L62.3134453,88.0412121 C47.6434122,88.0412121 35.1477808,77.27196 33.876552,63.5982889 C33.1874259,55.9937082 35.6750667,48.6025347 40.8670055,42.952451 C46.0041274,37.3570203 53.2582238,34.2417968 60.7785735,34.2417968 L393.328907,34.2417968 C408.051146,34.2417968 420.494571,44.9069479 421.713594,58.6326695 C422.40272,66.2893007 419.964675,73.6284237 414.775347,79.2759049 C409.638225,84.8218876 402.384128,88.0412121 394.866389,88.0412121 L322.106157,88.0412121 L319.193033,88.3561178 L318.665747,197.066227 C318.665747,200.813864 320.200619,204.246596 322.795283,206.726803 C323.641029,207.517971 324.593798,208.259691 325.708407,208.785401 C326.076463,209.048256 326.44713,209.20701 326.872613,209.365764 C327.350303,209.576569 327.822772,209.735323 328.355278,209.89668 L342.333575,210.000781 L342.706851,209.89668 C343.181931,209.735323 343.65962,209.576569 344.082493,209.365764 C349.060385,207.361819 352.448589,202.502904 352.448589,197.066227 L352.978485,121.725705 L392.906034,121.725705 C409.058732,121.725705 423.989798,115.760715 435.216811,105.832079 C446.443824,95.9086479 454.01377,82.1282733 455.392022,66.6588594 C456.926894,49.5004061 451.369509,32.9743667 439.717013,20.2506176 C428.226357,7.68562253 411.864833,0.557304101 394.866389,0.557304101" id="Fill-1"></path>
            </g>
            <path d="M73.4442478,60.3448276 C73.4442478,68.7730021 80.3225802,75.6321839 88.7774667,75.6321839 C97.2323532,75.6321839 104.113274,68.7730021 104.113274,60.3448276 C104.113274,51.9140725 97.2323532,45.0574713 88.7774667,45.0574713 C80.3225802,45.0574713 73.4442478,51.9140725 73.4442478,60.3448276" id="Fill-4"></path>
            <path d="M114.60531,60.3448276 C114.60531,68.7730021 121.486231,75.6321839 129.938529,75.6321839 C138.396004,75.6321839 145.274336,68.7730021 145.274336,60.3448276 C145.274336,51.9140725 138.396004,45.0574713 129.938529,45.0574713 C121.486231,45.0574713 114.60531,51.9140725 114.60531,60.3448276" id="Fill-6"></path>
        </g>
    </g>
</svg>